<svg width="11" height="11" viewBox="0 0 11 11" fill="none" xmlns="http://www.w3.org/2000/svg">
<rect x="0.1" y="0.1" width="10.8" height="10.8" rx="5.4" fill="#0395FF"/>
<rect x="0.1" y="0.1" width="10.8" height="10.8" rx="5.4" stroke="white" stroke-width="0.2"/>
<path d="M4.55 5.684C4.15 5.476 3.95 5.154 3.95 4.718C3.95 4.502 4.004 4.306 4.112 4.13C4.224 3.95 4.39 3.808 4.61 3.704C4.834 3.596 5.106 3.542 5.426 3.542C5.746 3.542 6.016 3.596 6.236 3.704C6.46 3.808 6.626 3.95 6.734 4.13C6.846 4.306 6.902 4.502 6.902 4.718C6.902 4.938 6.848 5.132 6.74 5.3C6.632 5.464 6.488 5.592 6.308 5.684C6.528 5.78 6.7 5.92 6.824 6.104C6.948 6.288 7.01 6.506 7.01 6.758C7.01 7.03 6.94 7.268 6.8 7.472C6.664 7.672 6.476 7.826 6.236 7.934C5.996 8.042 5.726 8.096 5.426 8.096C5.126 8.096 4.856 8.042 4.616 7.934C4.38 7.826 4.192 7.672 4.052 7.472C3.916 7.268 3.848 7.03 3.848 6.758C3.848 6.506 3.91 6.288 4.034 6.104C4.158 5.916 4.33 5.776 4.55 5.684ZM6.086 4.838C6.086 4.642 6.026 4.49 5.906 4.382C5.79 4.274 5.63 4.22 5.426 4.22C5.226 4.22 5.066 4.274 4.946 4.382C4.83 4.49 4.772 4.644 4.772 4.844C4.772 5.024 4.832 5.168 4.952 5.276C5.076 5.384 5.234 5.438 5.426 5.438C5.618 5.438 5.776 5.384 5.9 5.276C6.024 5.164 6.086 5.018 6.086 4.838ZM5.426 6.05C5.198 6.05 5.012 6.108 4.868 6.224C4.728 6.34 4.658 6.506 4.658 6.722C4.658 6.922 4.726 7.086 4.862 7.214C5.002 7.338 5.19 7.4 5.426 7.4C5.662 7.4 5.848 7.336 5.984 7.208C6.12 7.08 6.188 6.918 6.188 6.722C6.188 6.51 6.118 6.346 5.978 6.23C5.838 6.11 5.654 6.05 5.426 6.05Z" fill="white"/>
</svg>
