<svg width="11" height="11" viewBox="0 0 11 11" fill="none" xmlns="http://www.w3.org/2000/svg">
<rect x="0.1" y="0.1" width="10.8" height="10.8" rx="5.4" fill="#0395FF"/>
<rect x="0.1" y="0.1" width="10.8" height="10.8" rx="5.4" stroke="white" stroke-width="0.2"/>
<path d="M4.79 6.77C4.822 6.946 4.894 7.082 5.006 7.178C5.122 7.27 5.276 7.316 5.468 7.316C5.716 7.316 5.896 7.214 6.008 7.01C6.12 6.802 6.176 6.454 6.176 5.966C6.084 6.094 5.954 6.194 5.786 6.266C5.622 6.338 5.444 6.374 5.252 6.374C4.996 6.374 4.764 6.322 4.556 6.218C4.352 6.11 4.19 5.952 4.07 5.744C3.95 5.532 3.89 5.276 3.89 4.976C3.89 4.532 4.022 4.18 4.286 3.92C4.55 3.656 4.91 3.524 5.366 3.524C5.934 3.524 6.334 3.706 6.566 4.07C6.802 4.434 6.92 4.982 6.92 5.714C6.92 6.234 6.874 6.66 6.782 6.992C6.694 7.324 6.54 7.576 6.32 7.748C6.104 7.92 5.808 8.006 5.432 8.006C5.136 8.006 4.884 7.95 4.676 7.838C4.468 7.722 4.308 7.572 4.196 7.388C4.088 7.2 4.026 6.994 4.01 6.77H4.79ZM5.426 5.69C5.634 5.69 5.798 5.626 5.918 5.498C6.038 5.37 6.098 5.198 6.098 4.982C6.098 4.746 6.034 4.564 5.906 4.436C5.782 4.304 5.612 4.238 5.396 4.238C5.18 4.238 5.008 4.306 4.88 4.442C4.756 4.574 4.694 4.75 4.694 4.97C4.694 5.182 4.754 5.356 4.874 5.492C4.998 5.624 5.182 5.69 5.426 5.69Z" fill="white"/>
</svg>
