<svg width="11" height="11" viewBox="0 0 11 11" fill="none" xmlns="http://www.w3.org/2000/svg">
<rect x="0.1" y="0.1" width="10.8" height="10.8" rx="5.4" fill="#0395FF"/>
<rect x="0.1" y="0.1" width="10.8" height="10.8" rx="5.4" stroke="white" stroke-width="0.2"/>
<path d="M2.216 4.4V3.626H3.662V8H2.798V4.4H2.216ZM4.49183 5.756C4.49183 5.064 4.61583 4.522 4.86383 4.13C5.11583 3.738 5.53183 3.542 6.11183 3.542C6.69183 3.542 7.10583 3.738 7.35383 4.13C7.60583 4.522 7.73183 5.064 7.73183 5.756C7.73183 6.452 7.60583 6.998 7.35383 7.394C7.10583 7.79 6.69183 7.988 6.11183 7.988C5.53183 7.988 5.11583 7.79 4.86383 7.394C4.61583 6.998 4.49183 6.452 4.49183 5.756ZM6.90383 5.756C6.90383 5.46 6.88383 5.212 6.84383 5.012C6.80783 4.808 6.73183 4.642 6.61583 4.514C6.50383 4.386 6.33583 4.322 6.11183 4.322C5.88783 4.322 5.71783 4.386 5.60183 4.514C5.48983 4.642 5.41383 4.808 5.37383 5.012C5.33783 5.212 5.31983 5.46 5.31983 5.756C5.31983 6.06 5.33783 6.316 5.37383 6.524C5.40983 6.728 5.48583 6.894 5.60183 7.022C5.71783 7.146 5.88783 7.208 6.11183 7.208C6.33583 7.208 6.50583 7.146 6.62183 7.022C6.73783 6.894 6.81383 6.728 6.84983 6.524C6.88583 6.316 6.90383 6.06 6.90383 5.756Z" fill="white"/>
</svg>
