<svg width="11" height="11" viewBox="0 0 11 11" fill="none" xmlns="http://www.w3.org/2000/svg">
<rect x="0.1" y="0.1" width="10.8" height="10.8" rx="5.4" fill="#0395FF"/>
<rect x="0.1" y="0.1" width="10.8" height="10.8" rx="5.4" stroke="white" stroke-width="0.2"/>
<path d="M3.83 4.778C3.85 4.378 3.99 4.07 4.25 3.854C4.514 3.634 4.86 3.524 5.288 3.524C5.58 3.524 5.83 3.576 6.038 3.68C6.246 3.78 6.402 3.918 6.506 4.094C6.614 4.266 6.668 4.462 6.668 4.682C6.668 4.934 6.602 5.148 6.47 5.324C6.342 5.496 6.188 5.612 6.008 5.672V5.696C6.24 5.768 6.42 5.896 6.548 6.08C6.68 6.264 6.746 6.5 6.746 6.788C6.746 7.028 6.69 7.242 6.578 7.43C6.47 7.618 6.308 7.766 6.092 7.874C5.88 7.978 5.624 8.03 5.324 8.03C4.872 8.03 4.504 7.916 4.22 7.688C3.936 7.46 3.786 7.124 3.77 6.68H4.586C4.594 6.876 4.66 7.034 4.784 7.154C4.912 7.27 5.086 7.328 5.306 7.328C5.51 7.328 5.666 7.272 5.774 7.16C5.886 7.044 5.942 6.896 5.942 6.716C5.942 6.476 5.866 6.304 5.714 6.2C5.562 6.096 5.326 6.044 5.006 6.044H4.832V5.354H5.006C5.574 5.354 5.858 5.164 5.858 4.784C5.858 4.612 5.806 4.478 5.702 4.382C5.602 4.286 5.456 4.238 5.264 4.238C5.076 4.238 4.93 4.29 4.826 4.394C4.726 4.494 4.668 4.622 4.652 4.778H3.83Z" fill="white"/>
</svg>
