<svg width="11" height="11" viewBox="0 0 11 11" fill="none" xmlns="http://www.w3.org/2000/svg">
<rect x="0.1" y="0.1" width="10.8" height="10.8" rx="5.4" fill="#0395FF"/>
<rect x="0.1" y="0.1" width="10.8" height="10.8" rx="5.4" stroke="white" stroke-width="0.2"/>
<path d="M6.758 4.352H4.814V5.378C4.898 5.274 5.018 5.19 5.174 5.126C5.33 5.058 5.496 5.024 5.672 5.024C5.992 5.024 6.254 5.094 6.458 5.234C6.662 5.374 6.81 5.554 6.902 5.774C6.994 5.99 7.04 6.222 7.04 6.47C7.04 6.93 6.908 7.3 6.644 7.58C6.384 7.86 6.012 8 5.528 8C5.072 8 4.708 7.886 4.436 7.658C4.164 7.43 4.01 7.132 3.974 6.764H4.79C4.826 6.924 4.906 7.052 5.03 7.148C5.158 7.244 5.32 7.292 5.516 7.292C5.752 7.292 5.93 7.218 6.05 7.07C6.17 6.922 6.23 6.726 6.23 6.482C6.23 6.234 6.168 6.046 6.044 5.918C5.924 5.786 5.746 5.72 5.51 5.72C5.342 5.72 5.202 5.762 5.09 5.846C4.978 5.93 4.898 6.042 4.85 6.182H4.046V3.614H6.758V4.352Z" fill="white"/>
</svg>
