<svg width="9" height="9" viewBox="0 0 9 9" fill="none" xmlns="http://www.w3.org/2000/svg">
<path d="M7.65344 0.892165C7.59391 0.767587 7.44466 0.714856 7.32008 0.774387L5.28997 1.74451C5.16539 1.80404 5.11266 1.95329 5.17219 2.07787C5.23172 2.20244 5.38097 2.25517 5.50555 2.19564L7.3101 1.33332L8.17243 3.13786C8.23196 3.26244 8.38121 3.31517 8.50579 3.25564C8.63036 3.19611 8.68309 3.04686 8.62356 2.92228L7.65344 0.892165ZM1.12386 8.87756C2.90431 7.86209 4.18531 6.93302 5.19982 5.7399C6.21468 4.54636 6.94952 3.10437 7.6636 1.08324L7.19216 0.916675C6.48864 2.90792 5.7789 4.287 4.81891 5.41601C3.85855 6.54544 2.63442 7.44041 0.876142 8.44324L1.12386 8.87756Z" fill="white"/>
</svg>
