<svg width="8" height="9" viewBox="0 0 8 9" fill="none" xmlns="http://www.w3.org/2000/svg">
<path d="M6.99856 0.683533C6.98653 0.545988 6.86527 0.44424 6.72772 0.456274L4.48628 0.652374C4.34874 0.664408 4.24699 0.785666 4.25902 0.923212C4.27106 1.06076 4.39232 1.16251 4.52986 1.15047L6.52225 0.97616L6.69656 2.96855C6.7086 3.1061 6.82986 3.20784 6.9674 3.19581C7.10495 3.18378 7.20669 3.06252 7.19466 2.92497L6.99856 0.683533ZM6.558 0.544625L6.02234 1.183L6.40537 1.50439L6.94102 0.866019L6.558 0.544625ZM4.95103 2.45974L3.87972 3.73648L4.26274 4.05787L5.33405 2.78113L4.95103 2.45974ZM2.80841 5.01322L1.73709 6.28996L2.12012 6.61135L3.19143 5.33461L2.80841 5.01322ZM0.665781 7.5667L0.130124 8.20507L0.513146 8.52646L1.0488 7.88809L0.665781 7.5667Z" fill="white"/>
</svg>
