<svg width="9" height="9" viewBox="0 0 9 9" fill="none" xmlns="http://www.w3.org/2000/svg">
<path d="M7.6456 0.876795C7.57753 0.756671 7.42497 0.714475 7.30484 0.782549L5.34731 1.89186C5.22719 1.95994 5.18499 2.1125 5.25307 2.23262C5.32114 2.35275 5.4737 2.39494 5.59383 2.32687L7.33385 1.34081L8.31991 3.08084C8.38798 3.20096 8.54055 3.24316 8.66067 3.17508C8.78079 3.10701 8.82299 2.95445 8.75492 2.83432L7.6456 0.876795ZM7.18715 0.93341C7.10787 1.22003 7.02704 1.49392 6.94385 1.75619L7.42045 1.90736C7.50574 1.63847 7.58833 1.35857 7.66905 1.06669L7.18715 0.93341ZM6.34383 3.34858C6.09907 3.88995 5.82855 4.37335 5.51982 4.81638L5.93004 5.10224C6.25832 4.63116 6.54356 4.12051 6.79943 3.55456L6.34383 3.34858ZM4.42202 6.08417C4.03474 6.44903 3.59748 6.79538 3.09767 7.13743L3.38005 7.55006C3.89752 7.19592 4.3557 6.83358 4.76488 6.44811L4.42202 6.08417ZM1.64141 8.03061C1.40035 8.16527 1.14828 8.30108 0.88446 8.43891L1.11599 8.88208C1.3834 8.74237 1.63962 8.60434 1.88525 8.46712L1.64141 8.03061Z" fill="white"/>
</svg>
