<svg width="11" height="11" viewBox="0 0 11 11" fill="none" xmlns="http://www.w3.org/2000/svg">
<rect x="0.1" y="0.1" width="10.8" height="10.8" rx="5.4" fill="#0395FF"/>
<rect x="0.1" y="0.1" width="10.8" height="10.8" rx="5.4" stroke="white" stroke-width="0.2"/>
<path d="M4.082 7.052C4.466 6.732 4.772 6.466 5 6.254C5.228 6.038 5.418 5.814 5.57 5.582C5.722 5.35 5.798 5.122 5.798 4.898C5.798 4.694 5.75 4.534 5.654 4.418C5.558 4.302 5.41 4.244 5.21 4.244C5.01 4.244 4.856 4.312 4.748 4.448C4.64 4.58 4.584 4.762 4.58 4.994H3.764C3.78 4.514 3.922 4.15 4.19 3.902C4.462 3.654 4.806 3.53 5.222 3.53C5.678 3.53 6.028 3.652 6.272 3.896C6.516 4.136 6.638 4.454 6.638 4.85C6.638 5.162 6.554 5.46 6.386 5.744C6.218 6.028 6.026 6.276 5.81 6.488C5.594 6.696 5.312 6.948 4.964 7.244H6.734V7.94H3.77V7.316L4.082 7.052Z" fill="white"/>
</svg>
