<svg width="11" height="11" viewBox="0 0 11 11" fill="none" xmlns="http://www.w3.org/2000/svg">
<rect x="0.1" y="0.1" width="10.8" height="10.8" rx="5.4" fill="#E80C0C"/>
<rect x="0.1" y="0.1" width="10.8" height="10.8" rx="5.4" stroke="white" stroke-width="0.2"/>
<path d="M6.086 4.718C6.046 4.55 5.976 4.424 5.876 4.34C5.78 4.256 5.64 4.214 5.456 4.214C5.18 4.214 4.976 4.326 4.844 4.55C4.716 4.77 4.65 5.13 4.646 5.63C4.742 5.47 4.882 5.346 5.066 5.258C5.25 5.166 5.45 5.12 5.666 5.12C5.926 5.12 6.156 5.176 6.356 5.288C6.556 5.4 6.712 5.564 6.824 5.78C6.936 5.992 6.992 6.248 6.992 6.548C6.992 6.832 6.934 7.086 6.818 7.31C6.706 7.53 6.54 7.702 6.32 7.826C6.1 7.95 5.838 8.012 5.534 8.012C5.118 8.012 4.79 7.92 4.55 7.736C4.314 7.552 4.148 7.296 4.052 6.968C3.96 6.636 3.914 6.228 3.914 5.744C3.914 5.012 4.04 4.46 4.292 4.088C4.544 3.712 4.942 3.524 5.486 3.524C5.906 3.524 6.232 3.638 6.464 3.866C6.696 4.094 6.83 4.378 6.866 4.718H6.086ZM5.474 5.81C5.262 5.81 5.084 5.872 4.94 5.996C4.796 6.12 4.724 6.3 4.724 6.536C4.724 6.772 4.79 6.958 4.922 7.094C5.058 7.23 5.248 7.298 5.492 7.298C5.708 7.298 5.878 7.232 6.002 7.1C6.13 6.968 6.194 6.79 6.194 6.566C6.194 6.334 6.132 6.15 6.008 6.014C5.888 5.878 5.71 5.81 5.474 5.81Z" fill="white"/>
</svg>
